<mxfile host="app.diagrams.net" agent="Mozilla/5.0 (Macintosh; Intel Mac OS X 10_15_7) AppleWebKit/537.36 (KHTML, like Gecko) Chrome/133.0.0.0 Safari/537.36" version="26.0.16">
  <diagram name="Page-1" id="gkVcagr3QBycWiwnorA1">
    <mxGraphModel dx="1492" dy="1929" grid="1" gridSize="10" guides="1" tooltips="1" connect="1" arrows="1" fold="1" page="1" pageScale="1" pageWidth="1169" pageHeight="827" math="0" shadow="0">
      <root>
        <mxCell id="0" />
        <mxCell id="1" parent="0" />
        <mxCell id="lGZtVs_UHL_VOqumT9Z3-5" value="" style="shape=image;imageAspect=0;aspect=fixed;verticalLabelPosition=bottom;verticalAlign=top;hachureGap=4;fontFamily=Helvetica;image=data:image/webp,UklGRqoXAABXRUJQVlA4TJ4XAAAv58P5EFegKJKk5nLmiQTk4BKf2FDTSAp0dzwVoUQBTlCJWwVtpDDPXgZQhn+cmAWAJpK+7HKIJYudQ5rBAgDc+z+rWJ21lN0zfn/3AQFAJKVqB34mANKc2ratCqQh6PKkCPyhBjnDIgTr01IwWPtjWASinWFhgcDCAoE1LH1ZskDC6mDOiSR+ptRdmVVdlcpcXx3Rf2m0rWMRduhRwkhGeqh5P/4pkZvSf0r/Kf2n9J/Sf0r/Kf2n9J/Sf0r/Kf2n9J/Sf0r/Kf2n9J/Sf0r/Kf2n9J//3kz64+z4+LgVZ83FOg9nv2vRhj077sZY0/7+u0j5cXIQ54zFLi1Mn+PYkWmfidEjPWnFLs1xVYThjV0HZ8F/F99apvNQwMpvkqOTWStopSq4tULNn7TIOIkLN99l5yvmSCexJ+Y3Yfl6Y061mPh77JO5kFKoyzhnBB0qRQTz4GNllYZHSYhnif00bdlwFMe+Wi2bj/TYSmbx2splr+dWKovvVkKLiD+0E8fytmkchvlNHIreQExFFASzxHFVEHyLw6EtkNTDSEAcqYs6gYMssg5zGAdntBwCyTpMGodoKjLwC9BLAn4hegnAT9xeh8ESs98vVC8p+ElZI3QYNG3m6/eFHeUgcGKuxwmdd5YTh280w/lKAKeM/whRf8I3EjhluCtw55AITtntCtz5RganzHYF7nwjhHeWu4JWAn4lhR0+a/hpMWwfyBPx+P0BMbTZ7ArcOSSHU0bPvhN2wl+zCDvhmCDaTA4t7sCHJHHKYhW/uAN/JYovDNb9kRSY1aGFPGXjWxZhqwZismgzd1vgm4eE8c7ZbcK4YO02ZZuc3Rb4ZkwabcZuC3zzWxZhq4NascA3OzF1RnN3+FbQA7kH5HHK05k59BmOck4gFa4q/8SdaEwgbaamSl+iHE1V4DsOSOSdoXsEvqNDI7Hm5x6B7zgkknd27hH4jg6VxJqbewS+45BMdpi5R+A7OnQSs3XMXswzrb8RyhduDuyIWxsUE0qblSEFHvArqVR4GVLc2qADUjllZEiBB+zQSszGkMRS5WNIgUc8IJZ3PoaUd8Q0jgUe8IhcNBdjCjzgIbl84WJMgUeMY4FHTOmlzcSYAk/qnGCqPExL4EkdEswOD9MSeFJxLPCIHZFzRDGxzKlyMC2Kk+JgWgJP6kDsyHtEL44FnlTnn6fETFQLCHvK7VeiqYqcCv9UQQJXDBxIHYErg2KJk1JNW+KqoDj+1wtHZKN5pwoimyr3ELgC8JvIOSSbHd6p//6FjsSVvrHQEbiiPxU5HbqJ/9XCkdQR+IDeV8Kp/sucyr9Y+CZyDgln598d+Tw7a9QNpiFgOifdZG2yGIMK9p3SP46TtcmCME2Rkp4kJlNHmqY0J+h0LpMEAL1CIbwKAWKxIkbWazBWRoZ0ugkOsj3bbPJFYWtog0m+aGw9RcdRkmBxYAXHSYLHhREbl/il5YS6zEjXi4Ug3F4wh3X6NoJyy57FSlBuuRPDTlBuebPYQrll25IkDmkKip9JYi1cWjHRSRxAueXL4hd1IdFdY+9NuWVLCm4E4V5cGcLzj7p8SLuOoNyyxc+NN+FeTPHzUtSFQ+IrddHw0yGEe/FEC+TKm3KHI3HcCcodhrgOBeHOBUOUvQ5FIY5QOEr8FnWhzLdNfKcpEs7dUpCVCF2Jc5T4T10gdEOgSQPMcEOgLg4uXUO4c8oL1V8Y1IXBZSg0KYBvbtIQIefBUBfFO0e7BUC3s8OJlMOhLgguQ6IpBtLEPfsC5DwpQtC9WeFD6EJEkY4Q6CRhURcC59uVKhu2Q6MZOnzbTlqFUhcB51sWzQVFUEHQvcmGqdUS56gYkjrZmxdc2A6RJv+n4SUSpxMkdfZPzzkviobs6IZJk/tDuInEOSqM/aJ3MJ/zrUuFB3tCpcl7kq1LlQ1agaIU/VRvahbs2b4wQclfnCmcJueHdpKtS5sFe0KG8SrfoyJpFL6D8ZxvX3Z4FzLZL36T7yTblwoHQm5hqkwIGa4yqM529d/5FoZ5IZOkeNiu/uuGTZPr6r8kcJiuCuoUTINkdngQs9ikSN7xhQMxQ4fpqqDLLUyVezGTFskBeRAz9IgsVwukW5g2D9Laukm9cyCt4iE44A4P0go9IsvT+rmFqfJALRB8UhxPq5sEH5HjMVVSPPSKUx4QflIMT6vjAfvkssNDyN1R4YEqKPyIPJ9su20jXigZwPCYPxMCIvI7prpMtm7EihDgt5ZfdX2gRazgwStsvDC00mYjDVI5ZSP7pLLDgldVbV+qTICCgOwOeeQHCaWizUgahIpTJkDCDn7/MMTWpcpIEkJREqfNA376QoNMdljJPplUmPAzzL7QIhPFShIqlUFtZtIgUrwzk/2CBbP3qK43tIgUmpkkNIq24iYNEnlnJ/vFwuw9KvGHFolodpJQSFvxk30C2RE5FYaSEIjiKA3yOGUp++Sxw1Ja5KFZSkIdbcVT9oljh6m0iKPKVBLauFBcZZ803tlKizQqbCUpDmZvq65nNAjjnbG0CKPKC2jYDGObs+yTJd5ZS4ssquz464xSEDiIvw0fb9knih3mkhC1oblLgyRxqrhLiyQq3OCnfyQkobjBuYfsE8QOg0kIosphGuTQVuzgyEda5FDhCCQ43HZVx0v2iVEF7TCZhBihuMw+KeKdI6R+kjgnlJRZMfnSU4cQThWfabmG3a7qUuA0/XY5Tcsx7HbVZUKA47fLaxIiqHKF84QAx2uXLxDg8NtVRwkBDr9d1fGXpBF+zCrHaQXPu2KMSXx2QkfxnFbgVLjzj9YXepSm39NyOKMMCvwTAonDj6cpgnf8/gjOKINCj+L305CcUQaF7uV1HNYoBgL3agbgx5SZeJ57hYlW7DG+kzjAXz/uJBW4V9NLP/6TNIILeaEzsCepwK2/fjxKKlx9v7fDePxJKmzb9FW/z6OI3icQEppLdEOwjXCoKi5xmQRtPU2BRxGDMIHwB6f+tzrWBJwA3/8x3ZOQbdPH1NkUMRTrPW3NKy6DsTjYvqifScDWv4VVAQO23i28ChiubfqzVBW/TBKSBfFtnVsBQzIQPn4qxzSAwal//VIBMWxHYNY3vrPt//4qMJKWV9sXufRZtiM428jhT/p82xFkKO+CcUwbFKSnD9oA3pkkRBPXm774cm5HkCvF+7KPn2GiOgcFrv2uGGg6QfInpdSPg4LWDLHkteOLUpmVIkNIbEe+I9A5ccsxYk1SmoEkAf4Li9ylrRUnTRogmwnRgEfLiQ83TTc8Kpj6fnaM71QcfzdeSiS3iW/ozs6Oj//UamVpHR8fn/2ObVcklug/VDFGeptfCkCCm1oGdMLbFsJmcLEFvqmlQCrxbaUu6d6W0swsJQgTmlJA3IGrkqATVmhBBA4otLydPylhmG5QoYWdsFLicAJxBe5oJXDnD6UE7lQlggpBDyQSJwhXIru93y9wRxmNmLX9X+RCh2YNv2DedlGRDMr3jxB2lGoGYUf5QwmH1N844vaqbpC21xclIdP1OkUxa4R0BgGF8TKQrMP8ppScrFeBJGU9XOSc+J+UsEi9sH/SSl7Wj0Vg1qNFVolJfFHqpNgPkpv5URzfleRMp6gkDO96F3SoP2V1+8LzLCqY+DyL8RWg54nDtUyawl45U2sj65U/nSmJmh92Ht+rSqzm7KSL4vhMK+maztnZcTeb3J+Ov5+t94nclP5T+k/pP6X/lP5T+k/pP6X/lP5T+k/pP6X/lP7DWz7f5rfz+Uqz5K+Y+4kwW4L5YJQzN/OQPHJnTlPHZIQxNyv6mQ7M5dh/CYfc4dYIBLeiiecOLsdexCFGfdrtLaogVxxi1NOkr+PMBy/YPnaKLsgVhxgtyL4BGuALMuIFfbMxnRu8Q/eXp69ZQQ3UoQyyzPxo3XeJ8IMLcpzNyN5WB937ikhmjCVXB0CW2x2sXVBMOlpj5cUJgb4a9ylmYslowRvSYabMCGZgy4w3qKvMddYLQg7dv7l+BNllhTfa6dHLLxOvq0zxvT2YYYW3xRVZ+0CwsT9wY3tLxR2mmUIjF9O6OTdPBg0ge1CbzSW1TNGqvrs12UskJ7wtcjSjlntDHxGt5+CPuN8EpJYJ0EdE7NS8wKaB9oEwQ86Qo3wzxSDSjKqfaJbIMqgpBnmrIcEMRzbnetJXzBA2BVfbIqQLHjFG8Tmfrz61PalGgjsG2/y/zeef2gWpWS1g0SqiwB8uUCJ2mdtCwFUlvc3PU9fWjzHUXPD2kJ/Db52z/qvtSno7HEU+kc4H+dK18nh7MJyCLcME5NY4bALXkKvHx0dtmgdXe3rcmE0OHzMm1+CscxCBOrnRK5onu7myz+sjMKp0o/ygvYNzPc0Uw+biYyqUyFyJhiOTecFX7yfjKfiwJ33MmVcq2TOVGDTz5QOjRNDGwV94mkxkaHAixEG8uphC+York+yhbI4TFruu52wZeYInHTuZ3vlqzcTwFaAXRO3BkD0NSHSW/EEO0BNh8TV7tECRq9oolq6poY8WowA1VG/IWpIO8xWXXu9nzOxVBNka6USMwUNA7UXUByyDkZlh/kCcC6tJfK9uJnF/4ECcsV1yo12Ncjw+Gr7ECDLZcyLurCuSKf+P1w/5S77G8TwCGBhOa0HiydFs/DEuc0jAL4CmE6BdvFmZ+8oaZtN8uhC50/2y0pvp3GDLDRxmti+ezxuKdAQxNjV+hYgr7HNEbp7ImuEAj2ZBrv7vGXrq6C7rIHjO3jbN59HbfG1uN23yPGPMYpx5QBX4TmvczM8IulGJMIzzx6nhr/6sCJEOrSdm2+WuhgJs8zSNmE5wmj/3gO3DZM5D9i4eoRcwiatNVTAOrQHXAOxhPmeqD4JpthFCzradaacCf61ANmzYVggC5S4JHc/TptMQIS6mEchztq9lS20A3XplKugScz4/MIcJM4azdwU86u5SZDOEN9rNvP0aBqgGaxq5MjQhKXAZNGYFZLjpXttzC1/lJ/DFOs330+EKCZICpYGpLy/arZhYsAe4+FYIAHOYM3rn5wzXXSjc7B2Iu03ubMF1wae4fuhIY3RNfZAJ5gyC954vzgQi9BCziehrgMcIgHEjIhmYvtLP67yhzlnfSPYERW6YoQ4wgg8Y15GtQQwxtwVjuAasHAngatFb6ay232CywBXyZr6a3xr4QJKaXBpJR6aakqLKagg0Ave52yA3aNyhY9objLME2nZcgd1jOnXgSorS8wNBPjC6/MhUl+FanA6QQTDqXiK5N5fyOEJmOILoazcsEEcIZe8537lG7O6D9HBfENSKzXgepp6ugLs7ZHMBFfEYlxBG3UsQ+O2+oZJg6+IuxEK5QeOa+aXFFBHzOY2M4HOHMi/aDVP4UNI8S0Tz1Y/gB42QPBtcIpkCVz90xvbA/p4DsPMiAVK0nv4KOM6JTe5wnpGbcfsh/G2ZwJ2AcZ4FeKg1GHjcgTYsVDTYGgIwU26oYQFO3RJ9nDOApdMHYldOmMBN/xQGe4kYrDMGAjZHCyK5c6G/QFBzRIRULs/Aixy29vdxvRi4fmDNB44l2DZF2Irbg4+pBucXy8Dwkj8amQ7hGxtsDYHmargS1gzwdfyXOUMTizn/Y7x1MScLMyMEuiTcoy8RmHF7WN1LEujZCJFzihMDM9BlF75e43GiromKmG97DykGJvi6gwBU91JIeuvoxmZQmMACdi/RO/ZAkF5o29duAVoIDV0jIkdMTS5JvL7c3s5f8uEe8ucqssYjMV4D3BZYNGhLGLdhlhbeFkeQBwqpHACpe0nCYuwyTPErfxeNrZIA7m3kXqR5gFzMHDE1qXspRauwBHAjYFFEfTN2r43HqgcKBKjCS0dMDC6FWBXR2+3D9fVcey7GmFpubnpgLCa+Y8vSDZ+fnwiAnmTNDampghPKCrM2MKhQvRYDjLbM3MXQaFClhLtMOvB+e8g9OoPiV77BcIFZ3UsnfcxyZ1ah+iw230grIgDblWER7598Mo4NmAFOkXaBeVSHMuxntjwD5yzyUKA0u4jDgLE3t4iVGojVjPmehhnnlfYuML5dhSxe54BZaQdd8J72TLikBmP/2CSYsCVjsGyx9JxgVPfShJtLnamJ7D/mrsj+CWPOlg5xswJFtvO+g3sdJswVaeYE42R6OkH79TMtz+dT5ivkl4AYPaLN5jDQuLtf1DYixVyBCmRgSJkwXLkzbdSq9rW3wspY4e5+MYKw7VH1PwvjxaRzJBf4WQYNdLIWXgl/wTz/tgthPZ3rFcfSBUNTdSWcQaY5hhqc/jBMsecMfKdwaeF9j7tVBhi6AXGHQjbpCPnUgk/CT7BdhBkksKn0r69zfQpIFMOMbO4zNzuI/Por+tc2plYQ6hkNbru3MnU5C/BGDZdQzRj1rUqHvgr7r2QxmLXuEIht4zN8d76woJoRrlmYeCUCQI3z4L0nmNnTzyDjguhRi7mdR31lPdX/+QgwLtPHiwGqORgj6blmFNHMFer8+63n73nJlT1D1GU/HeLGdvqu6A3zgWnmF2aIwvPxvH5oWM29mWDH8xxRM1ylNFE4yZr/wvw9L5RUo6+LSJaIfO1CucWO27uhZ7rd3SUW04mJ/BfAQRbJ1QKNtbhC1qPUiPFlXG6omTLRIxvtuQCpFcm4ry03etbo4ufhGev0vSEw1Sj/BdBpcQtcObDOvbUu6D7fL8QC5KLnhF3geVqKGWzwXwCPRhbIM/7bPEGyhOmhAe8prDDX2bEhMM30AxDmrPUKZIDP9QA5trPnEKDuRA5YQA/K1SjeCEMAp1cXxhTdhJv67ntFCbCRsqevIb3CjOog/gvgdNUKY2LxmnnDN92WviX32GtE+gqzyJeDITBTogEFsSwMwxN+FmO4EQag+bcDvNM3lnkEUoObtQXNuqAoIHG/2VEUU5vXWeRRADNEliMslq+GHoxmMIi+JFP0f9D5jVxjbsLNOxGjsTOIHoIaFrjOLsCjqiExP0VDJUA92gtCGM/X0h0WE2ZvTNX1FphXj1XZp8hb+GeQK9MgHVRLezjMqoEZuUwDGM8DmODb4DmI9buqblZagS+SHNXM5EtlCjzTjhzPM03iAYb3jT+CAoEaBqaWdIStSI7YK0BMgTbYnB9tLUYI8wjOpVR5zA9GDbSxUuyiXNMBj81PEpqnbvUhMPV/l0psb9vGGHAnf1mAUAOsMx4tHXhbGkCznLfz+TBTphNMt/BuZAD5ntmX+fzaNPUKifEZSXKZoDanI2c4E/DXeoG6YvStSe2pYSdU75ruNQBNpIlC3ieNUA1QyxS1OXbGrAiRIt9ZO9zk2Vov8AwDb6PqUf77MDRNvkQ8YKddHNkMAnOES2pRI4RzN0KBzG8RQk0wP6OXDjL1z4Ge35IFmhnURRhdzzcvcDLjogmLcAB1WFPLOFOAUKXpDRBYdUDmTgR4QmfAkr3O2DO1dI0FM0S0O1eWz8/YOz2FZ2IITC1TcPbx2+aZTxQW/cu7kQuBOD+vGnpVRc/JXI07J/uNrYm5Lg0xfJiw2Y1LCDmlnxwcOOYXnaS3mSrkhF/Zl2V8rjMauRCIE9qf68zaU67ZdoJ6sk0FGzDKZAXjpqjLwRX2mEBw1Tqilmn+ZzA+P9+y74yILMCelz1rAWfY+AOOhl6AG9TYwg+4bIERkU5kwP7AtBX3hsBEYnP5/FD2gKdvZi3g40Q1DxjcrkZWVXKJ7IS8KgPuf6cVWa37JGJVwK/KFRNT58pa2NeYnnaB259bnaLqyjPYHTRiaRcKBluta6SSfT4UWKzANd0uvK1rTE8rBE7fTtaLbFpM40E/AUdqxs6+KFuu6Bngubu52Qx9uVkFC/f65ubDVJ4PDw/aqv/+oTKsc4fi9ubm1bbr/4IrLpfvqXrBFcmTsR4DNn+zsuYha7Tdn69gpUxc32QMWLbXNzmjFb3mdpg7C47r8jD7akML46LG9F90EXmePzj4s2HfDjE/+Pc2cPUnpZ6a/kgZ2+/PDj6ff2r3mX1zkFfrP1JJoX8I9Plqpe3KEXVUn+7KaXMSPpXITek/pf+U/lP6T+k/pf+U/lP6T+k/pf+U/lP6T+k/pf+U/lP6T+k/pf+U/lP6T+k/ZQso;" parent="1" vertex="1">
          <mxGeometry x="500" y="50.5" width="100" height="100" as="geometry" />
        </mxCell>
        <mxCell id="lGZtVs_UHL_VOqumT9Z3-6" value="" style="rounded=0;whiteSpace=wrap;html=1;hachureGap=4;fontFamily=Helvetica;" parent="1" vertex="1">
          <mxGeometry x="110" y="290" width="1240" height="380" as="geometry" />
        </mxCell>
        <mxCell id="lGZtVs_UHL_VOqumT9Z3-10" value="" style="rounded=1;whiteSpace=wrap;html=1;hachureGap=4;fontFamily=Helvetica;" parent="1" vertex="1">
          <mxGeometry x="130" y="320" width="590" height="340" as="geometry" />
        </mxCell>
        <mxCell id="lGZtVs_UHL_VOqumT9Z3-11" value="Data Extractors Repo" style="text;html=1;align=center;verticalAlign=middle;whiteSpace=wrap;rounded=0;fontFamily=Helvetica;" parent="1" vertex="1">
          <mxGeometry x="260" y="330" width="130" height="30" as="geometry" />
        </mxCell>
        <mxCell id="67s5NUpGnZRPGUlSP67H-22" style="edgeStyle=orthogonalEdgeStyle;rounded=0;orthogonalLoop=1;jettySize=auto;html=1;entryX=0.5;entryY=0;entryDx=0;entryDy=0;" edge="1" parent="1" source="lGZtVs_UHL_VOqumT9Z3-12" target="67s5NUpGnZRPGUlSP67H-19">
          <mxGeometry relative="1" as="geometry" />
        </mxCell>
        <mxCell id="67s5NUpGnZRPGUlSP67H-23" value="Store lead request" style="edgeLabel;html=1;align=center;verticalAlign=middle;resizable=0;points=[];" vertex="1" connectable="0" parent="67s5NUpGnZRPGUlSP67H-22">
          <mxGeometry x="-0.183" relative="1" as="geometry">
            <mxPoint as="offset" />
          </mxGeometry>
        </mxCell>
        <mxCell id="lGZtVs_UHL_VOqumT9Z3-12" value="WebHook API" style="rounded=1;whiteSpace=wrap;html=1;hachureGap=4;fontFamily=Helvetica;" parent="1" vertex="1">
          <mxGeometry x="240" y="402" width="190" height="90" as="geometry" />
        </mxCell>
        <mxCell id="lGZtVs_UHL_VOqumT9Z3-19" style="edgeStyle=orthogonalEdgeStyle;rounded=0;hachureGap=4;orthogonalLoop=1;jettySize=auto;html=1;fontFamily=Helvetica;" parent="1" source="lGZtVs_UHL_VOqumT9Z3-15" target="lGZtVs_UHL_VOqumT9Z3-5" edge="1">
          <mxGeometry relative="1" as="geometry" />
        </mxCell>
        <mxCell id="MnBY0ZjCENi5DQH1-zn_-19" value="click link" style="edgeLabel;html=1;align=center;verticalAlign=middle;resizable=0;points=[];" parent="lGZtVs_UHL_VOqumT9Z3-19" vertex="1" connectable="0">
          <mxGeometry x="-0.232" y="-2" relative="1" as="geometry">
            <mxPoint as="offset" />
          </mxGeometry>
        </mxCell>
        <mxCell id="lGZtVs_UHL_VOqumT9Z3-15" value="User" style="shape=umlActor;verticalLabelPosition=bottom;verticalAlign=top;html=1;outlineConnect=0;hachureGap=4;fontFamily=Helvetica;" parent="1" vertex="1">
          <mxGeometry x="202.20999999999998" y="70.5" width="30" height="60" as="geometry" />
        </mxCell>
        <mxCell id="MnBY0ZjCENi5DQH1-zn_-3" style="edgeStyle=orthogonalEdgeStyle;rounded=0;orthogonalLoop=1;jettySize=auto;html=1;exitX=0.5;exitY=0;exitDx=0;exitDy=0;fontFamily=Helvetica;" parent="1" source="lGZtVs_UHL_VOqumT9Z3-16" target="lGZtVs_UHL_VOqumT9Z3-5" edge="1">
          <mxGeometry relative="1" as="geometry">
            <Array as="points">
              <mxPoint x="640" y="445" />
              <mxPoint x="640" y="140" />
            </Array>
          </mxGeometry>
        </mxCell>
        <mxCell id="MnBY0ZjCENi5DQH1-zn_-16" value="update lead status&lt;div&gt;update revenue collected&lt;/div&gt;&lt;div&gt;convert lead to customer on activation&lt;/div&gt;" style="edgeLabel;html=1;align=center;verticalAlign=middle;resizable=0;points=[];" parent="MnBY0ZjCENi5DQH1-zn_-3" vertex="1" connectable="0">
          <mxGeometry x="0.1975" y="-1" relative="1" as="geometry">
            <mxPoint as="offset" />
          </mxGeometry>
        </mxCell>
        <mxCell id="lGZtVs_UHL_VOqumT9Z3-16" value="PS Updater" style="rounded=1;whiteSpace=wrap;html=1;hachureGap=4;fontFamily=Helvetica;" parent="1" vertex="1">
          <mxGeometry x="470" y="445" width="190" height="90" as="geometry" />
        </mxCell>
        <mxCell id="lGZtVs_UHL_VOqumT9Z3-18" value="" style="points=[];aspect=fixed;html=1;align=center;shadow=0;dashed=0;fillColor=#FF6A00;strokeColor=none;shape=mxgraph.alibaba_cloud.domain_and_website;hachureGap=4;fontFamily=Helvetica;" parent="1" vertex="1">
          <mxGeometry x="822.2099999999999" y="73.5" width="75.59" height="61" as="geometry" />
        </mxCell>
        <mxCell id="lGZtVs_UHL_VOqumT9Z3-22" style="edgeStyle=orthogonalEdgeStyle;rounded=0;hachureGap=4;orthogonalLoop=1;jettySize=auto;html=1;entryX=0.086;entryY=0.434;entryDx=0;entryDy=0;entryPerimeter=0;fontFamily=Helvetica;" parent="1" source="lGZtVs_UHL_VOqumT9Z3-5" target="lGZtVs_UHL_VOqumT9Z3-18" edge="1">
          <mxGeometry relative="1" as="geometry" />
        </mxCell>
        <mxCell id="lGZtVs_UHL_VOqumT9Z3-23" value="Redirect app.8fig.co?ps_xid=1234" style="edgeLabel;html=1;align=center;verticalAlign=middle;resizable=0;points=[];sketch=1;hachureGap=4;jiggle=2;curveFitting=1;fontFamily=Helvetica;" parent="lGZtVs_UHL_VOqumT9Z3-22" vertex="1" connectable="0">
          <mxGeometry x="-0.5513" y="4" relative="1" as="geometry">
            <mxPoint x="79" y="-6" as="offset" />
          </mxGeometry>
        </mxCell>
        <mxCell id="MnBY0ZjCENi5DQH1-zn_-2" style="edgeStyle=orthogonalEdgeStyle;rounded=0;orthogonalLoop=1;jettySize=auto;html=1;entryX=0.5;entryY=0;entryDx=0;entryDy=0;exitX=0.5;exitY=1;exitDx=0;exitDy=0;fontFamily=Helvetica;" parent="1" source="lGZtVs_UHL_VOqumT9Z3-5" target="lGZtVs_UHL_VOqumT9Z3-12" edge="1">
          <mxGeometry relative="1" as="geometry">
            <Array as="points">
              <mxPoint x="550" y="220" />
              <mxPoint x="335" y="220" />
            </Array>
          </mxGeometry>
        </mxCell>
        <mxCell id="MnBY0ZjCENi5DQH1-zn_-24" value="New lead" style="edgeLabel;html=1;align=center;verticalAlign=middle;resizable=0;points=[];" parent="MnBY0ZjCENi5DQH1-zn_-2" vertex="1" connectable="0">
          <mxGeometry x="-0.2757" relative="1" as="geometry">
            <mxPoint x="-5" y="-10" as="offset" />
          </mxGeometry>
        </mxCell>
        <mxCell id="MnBY0ZjCENi5DQH1-zn_-4" value="" style="rounded=1;whiteSpace=wrap;html=1;hachureGap=4;fontFamily=Helvetica;" parent="1" vertex="1">
          <mxGeometry x="730" y="320" width="590" height="340" as="geometry" />
        </mxCell>
        <mxCell id="MnBY0ZjCENi5DQH1-zn_-5" value="cbb-app Repo" style="text;html=1;align=center;verticalAlign=middle;whiteSpace=wrap;rounded=0;fontFamily=Helvetica;" parent="1" vertex="1">
          <mxGeometry x="960" y="330" width="130" height="30" as="geometry" />
        </mxCell>
        <mxCell id="MnBY0ZjCENi5DQH1-zn_-6" value="marketing identifier API service" style="rounded=1;whiteSpace=wrap;html=1;hachureGap=4;fontFamily=Helvetica;" parent="1" vertex="1">
          <mxGeometry x="1110" y="435" width="190" height="90" as="geometry" />
        </mxCell>
        <mxCell id="MnBY0ZjCENi5DQH1-zn_-7" style="edgeStyle=orthogonalEdgeStyle;rounded=0;orthogonalLoop=1;jettySize=auto;html=1;entryX=0.5;entryY=0;entryDx=0;entryDy=0;" parent="1" source="lGZtVs_UHL_VOqumT9Z3-18" target="MnBY0ZjCENi5DQH1-zn_-6" edge="1">
          <mxGeometry relative="1" as="geometry">
            <Array as="points">
              <mxPoint x="860" y="260" />
              <mxPoint x="885" y="260" />
              <mxPoint x="885" y="380" />
              <mxPoint x="1205" y="380" />
            </Array>
          </mxGeometry>
        </mxCell>
        <mxCell id="MnBY0ZjCENi5DQH1-zn_-8" value="Store ps_xid and other identifiers (google, meta)" style="edgeLabel;html=1;align=center;verticalAlign=middle;resizable=0;points=[];" parent="MnBY0ZjCENi5DQH1-zn_-7" vertex="1" connectable="0">
          <mxGeometry x="-0.3886" y="-2" relative="1" as="geometry">
            <mxPoint as="offset" />
          </mxGeometry>
        </mxCell>
        <mxCell id="MnBY0ZjCENi5DQH1-zn_-11" style="edgeStyle=orthogonalEdgeStyle;rounded=0;orthogonalLoop=1;jettySize=auto;html=1;exitX=0.417;exitY=-0.025;exitDx=0;exitDy=0;exitPerimeter=0;" parent="1" source="MnBY0ZjCENi5DQH1-zn_-9" target="lGZtVs_UHL_VOqumT9Z3-16" edge="1">
          <mxGeometry relative="1" as="geometry">
            <Array as="points">
              <mxPoint x="875" y="710" />
              <mxPoint x="630" y="710" />
            </Array>
          </mxGeometry>
        </mxCell>
        <mxCell id="MnBY0ZjCENi5DQH1-zn_-25" value="Get ps_xid user got from link (for auto link)" style="edgeLabel;html=1;align=center;verticalAlign=middle;resizable=0;points=[];" parent="MnBY0ZjCENi5DQH1-zn_-11" vertex="1" connectable="0">
          <mxGeometry x="-0.5123" relative="1" as="geometry">
            <mxPoint x="-41" y="-10" as="offset" />
          </mxGeometry>
        </mxCell>
        <mxCell id="67s5NUpGnZRPGUlSP67H-5" style="edgeStyle=orthogonalEdgeStyle;rounded=0;orthogonalLoop=1;jettySize=auto;html=1;entryX=1;entryY=0.75;entryDx=0;entryDy=0;" edge="1" parent="1">
          <mxGeometry relative="1" as="geometry">
            <mxPoint x="885" y="820" as="sourcePoint" />
            <mxPoint x="610" y="1005.5" as="targetPoint" />
            <Array as="points">
              <mxPoint x="920" y="820" />
              <mxPoint x="920" y="1006" />
            </Array>
          </mxGeometry>
        </mxCell>
        <mxCell id="67s5NUpGnZRPGUlSP67H-12" value="get linkage between ps_xid to 8fig users&amp;nbsp;&lt;div&gt;that signed up using a link&lt;/div&gt;" style="edgeLabel;html=1;align=center;verticalAlign=middle;resizable=0;points=[];" vertex="1" connectable="0" parent="67s5NUpGnZRPGUlSP67H-5">
          <mxGeometry x="0.5645" y="-2" relative="1" as="geometry">
            <mxPoint x="173" y="-44" as="offset" />
          </mxGeometry>
        </mxCell>
        <mxCell id="MnBY0ZjCENi5DQH1-zn_-9" value="marketing_identifier" style="shape=cylinder3;whiteSpace=wrap;html=1;boundedLbl=1;backgroundOutline=1;size=15;" parent="1" vertex="1">
          <mxGeometry x="825" y="747" width="120" height="80" as="geometry" />
        </mxCell>
        <mxCell id="MnBY0ZjCENi5DQH1-zn_-10" style="edgeStyle=orthogonalEdgeStyle;rounded=0;orthogonalLoop=1;jettySize=auto;html=1;entryX=0.5;entryY=0;entryDx=0;entryDy=0;entryPerimeter=0;exitX=0.5;exitY=1;exitDx=0;exitDy=0;" parent="1" source="MnBY0ZjCENi5DQH1-zn_-6" target="MnBY0ZjCENi5DQH1-zn_-9" edge="1">
          <mxGeometry relative="1" as="geometry" />
        </mxCell>
        <mxCell id="MnBY0ZjCENi5DQH1-zn_-18" value="store ps_xid&lt;div&gt;store gclid&lt;/div&gt;&lt;div&gt;store meta click id&lt;/div&gt;" style="edgeLabel;html=1;align=center;verticalAlign=middle;resizable=0;points=[];" parent="MnBY0ZjCENi5DQH1-zn_-10" vertex="1" connectable="0">
          <mxGeometry x="-0.3852" y="1" relative="1" as="geometry">
            <mxPoint as="offset" />
          </mxGeometry>
        </mxCell>
        <mxCell id="MnBY0ZjCENi5DQH1-zn_-13" style="edgeStyle=orthogonalEdgeStyle;rounded=0;orthogonalLoop=1;jettySize=auto;html=1;entryX=0.25;entryY=1;entryDx=0;entryDy=0;exitX=0.5;exitY=0;exitDx=0;exitDy=0;exitPerimeter=0;" parent="1" source="MnBY0ZjCENi5DQH1-zn_-12" target="lGZtVs_UHL_VOqumT9Z3-16" edge="1">
          <mxGeometry relative="1" as="geometry">
            <mxPoint x="568" y="535" as="targetPoint" />
            <Array as="points">
              <mxPoint x="740" y="747" />
              <mxPoint x="740" y="730" />
              <mxPoint x="518" y="730" />
              <mxPoint x="518" y="560" />
            </Array>
          </mxGeometry>
        </mxCell>
        <mxCell id="MnBY0ZjCENi5DQH1-zn_-17" value="get &quot;first touch&quot; lead by 8fig user id" style="edgeLabel;html=1;align=center;verticalAlign=middle;resizable=0;points=[];" parent="MnBY0ZjCENi5DQH1-zn_-13" vertex="1" connectable="0">
          <mxGeometry x="-0.3229" y="-3" relative="1" as="geometry">
            <mxPoint x="3" y="-7" as="offset" />
          </mxGeometry>
        </mxCell>
        <mxCell id="67s5NUpGnZRPGUlSP67H-4" style="edgeStyle=orthogonalEdgeStyle;rounded=0;orthogonalLoop=1;jettySize=auto;html=1;entryX=1;entryY=0.5;entryDx=0;entryDy=0;" edge="1" parent="1" source="MnBY0ZjCENi5DQH1-zn_-12" target="67s5NUpGnZRPGUlSP67H-2">
          <mxGeometry relative="1" as="geometry">
            <Array as="points">
              <mxPoint x="780" y="990" />
            </Array>
          </mxGeometry>
        </mxCell>
        <mxCell id="67s5NUpGnZRPGUlSP67H-13" value="Search for all available leads&amp;nbsp;&lt;div&gt;by email / name / id etc.&lt;/div&gt;" style="edgeLabel;html=1;align=center;verticalAlign=middle;resizable=0;points=[];" vertex="1" connectable="0" parent="67s5NUpGnZRPGUlSP67H-4">
          <mxGeometry x="0.507" y="-3" relative="1" as="geometry">
            <mxPoint x="8" y="-17" as="offset" />
          </mxGeometry>
        </mxCell>
        <mxCell id="MnBY0ZjCENi5DQH1-zn_-12" value="partnerstack_leads" style="shape=cylinder3;whiteSpace=wrap;html=1;boundedLbl=1;backgroundOutline=1;size=15;" parent="1" vertex="1">
          <mxGeometry x="670" y="747" width="120" height="80" as="geometry" />
        </mxCell>
        <mxCell id="MnBY0ZjCENi5DQH1-zn_-14" style="edgeStyle=orthogonalEdgeStyle;rounded=0;orthogonalLoop=1;jettySize=auto;html=1;entryX=0;entryY=0.5;entryDx=0;entryDy=0;entryPerimeter=0;exitX=0.85;exitY=0.998;exitDx=0;exitDy=0;exitPerimeter=0;" parent="1" source="67s5NUpGnZRPGUlSP67H-19" target="MnBY0ZjCENi5DQH1-zn_-12" edge="1">
          <mxGeometry relative="1" as="geometry">
            <Array as="points">
              <mxPoint x="402" y="787" />
            </Array>
          </mxGeometry>
        </mxCell>
        <mxCell id="MnBY0ZjCENi5DQH1-zn_-15" value="Store lead&lt;br&gt;Update lead - user linkage&amp;nbsp;" style="edgeLabel;html=1;align=center;verticalAlign=middle;resizable=0;points=[];" parent="MnBY0ZjCENi5DQH1-zn_-14" vertex="1" connectable="0">
          <mxGeometry x="0.5258" relative="1" as="geometry">
            <mxPoint x="-30" y="-17" as="offset" />
          </mxGeometry>
        </mxCell>
        <mxCell id="MnBY0ZjCENi5DQH1-zn_-22" style="edgeStyle=orthogonalEdgeStyle;rounded=0;orthogonalLoop=1;jettySize=auto;html=1;" parent="1" source="MnBY0ZjCENi5DQH1-zn_-21" target="lGZtVs_UHL_VOqumT9Z3-5" edge="1">
          <mxGeometry relative="1" as="geometry" />
        </mxCell>
        <mxCell id="MnBY0ZjCENi5DQH1-zn_-23" value="Lead submission form" style="edgeLabel;html=1;align=center;verticalAlign=middle;resizable=0;points=[];" parent="MnBY0ZjCENi5DQH1-zn_-22" vertex="1" connectable="0">
          <mxGeometry x="-0.7825" y="-1" relative="1" as="geometry">
            <mxPoint x="62" y="-11" as="offset" />
          </mxGeometry>
        </mxCell>
        <mxCell id="MnBY0ZjCENi5DQH1-zn_-21" value="Admin / partner" style="shape=umlActor;verticalLabelPosition=bottom;verticalAlign=top;html=1;outlineConnect=0;" parent="1" vertex="1">
          <mxGeometry x="202.21" y="-30" width="30" height="60" as="geometry" />
        </mxCell>
        <mxCell id="MnBY0ZjCENi5DQH1-zn_-28" style="edgeStyle=orthogonalEdgeStyle;rounded=0;orthogonalLoop=1;jettySize=auto;html=1;" parent="1" source="MnBY0ZjCENi5DQH1-zn_-26" target="lGZtVs_UHL_VOqumT9Z3-16" edge="1">
          <mxGeometry relative="1" as="geometry" />
        </mxCell>
        <mxCell id="MnBY0ZjCENi5DQH1-zn_-31" value="Application status update" style="edgeLabel;html=1;align=center;verticalAlign=middle;resizable=0;points=[];" parent="MnBY0ZjCENi5DQH1-zn_-28" vertex="1" connectable="0">
          <mxGeometry x="0.1322" y="1" relative="1" as="geometry">
            <mxPoint y="-10" as="offset" />
          </mxGeometry>
        </mxCell>
        <mxCell id="MnBY0ZjCENi5DQH1-zn_-26" value="Application Status Updates" style="rounded=1;whiteSpace=wrap;html=1;hachureGap=4;fontFamily=Helvetica;" parent="1" vertex="1">
          <mxGeometry x="850" y="400" width="190" height="90" as="geometry" />
        </mxCell>
        <mxCell id="MnBY0ZjCENi5DQH1-zn_-30" style="edgeStyle=orthogonalEdgeStyle;rounded=0;orthogonalLoop=1;jettySize=auto;html=1;entryX=1;entryY=0.75;entryDx=0;entryDy=0;" parent="1" source="MnBY0ZjCENi5DQH1-zn_-27" target="lGZtVs_UHL_VOqumT9Z3-16" edge="1">
          <mxGeometry relative="1" as="geometry" />
        </mxCell>
        <mxCell id="MnBY0ZjCENi5DQH1-zn_-32" value="Application New revenue&amp;nbsp;&lt;div&gt;collected update&lt;/div&gt;" style="edgeLabel;html=1;align=center;verticalAlign=middle;resizable=0;points=[];" parent="MnBY0ZjCENi5DQH1-zn_-30" vertex="1" connectable="0">
          <mxGeometry x="-0.0672" y="-1" relative="1" as="geometry">
            <mxPoint y="-15" as="offset" />
          </mxGeometry>
        </mxCell>
        <mxCell id="MnBY0ZjCENi5DQH1-zn_-27" value="Application Payment Collected Updates" style="rounded=1;whiteSpace=wrap;html=1;hachureGap=4;fontFamily=Helvetica;" parent="1" vertex="1">
          <mxGeometry x="850" y="525" width="190" height="90" as="geometry" />
        </mxCell>
        <mxCell id="67s5NUpGnZRPGUlSP67H-3" style="edgeStyle=orthogonalEdgeStyle;rounded=0;orthogonalLoop=1;jettySize=auto;html=1;" edge="1" parent="1" source="67s5NUpGnZRPGUlSP67H-1" target="67s5NUpGnZRPGUlSP67H-2">
          <mxGeometry relative="1" as="geometry" />
        </mxCell>
        <mxCell id="67s5NUpGnZRPGUlSP67H-1" value="Actor" style="shape=umlActor;verticalLabelPosition=bottom;verticalAlign=top;html=1;outlineConnect=0;" vertex="1" parent="1">
          <mxGeometry x="320" y="960" width="30" height="60" as="geometry" />
        </mxCell>
        <mxCell id="67s5NUpGnZRPGUlSP67H-2" value="" style="shape=image;imageAspect=0;aspect=fixed;verticalLabelPosition=bottom;verticalAlign=top;image=data:image/jpeg,/9j/4AAQSkZJRgABAQAAAQABAAD//gA7Q1JFQVRPUjogZ2QtanBlZyB2MS4wICh1c2luZyBJSkcgSlBFRyB2NjIpLCBxdWFsaXR5ID0gODAK/9sAhAABAQEBAQEBAgIBAgICAgIDAwICAwMEAwMDAwMEBwQFBAQFBAcGBwYGBgcGCwgICAgLDAoKCgwPDg4PExITGRkhAQEBAQEBAQECAgECAgICAgMDAgIDAwQDAwMDAwQHBAUEBAUEBwYHBgYGBwYLCAgICAsMCgoKDA8ODg8TEhMZGSH/wgARCAKKA2IDASIAAhEBAxEB/8QAHwABAQACAgMBAQEAAAAAAAAAAAQCCwkKAwcIBgUB/9oACAEBAAAAAO/wAAAAAAAAAAAAAAAAAAAAAAAAAAAAAAAAAAAAAAAAAAAAAAAAAAAAAAAAAAAAAAAAAAAAAAAAAAAAAAAAAAAAAAAAAAAAAAAAAAAAAAAAAAAADBngzwzwzwADPBmMM8AZ4DPDNhmwM8BngAZ4AGeAzwZsBngZ4AAMwBOoAAAJ6AACegT0AAnoAnoAAAnononUTiidQAAAAAAAAAAAAAAAAABgAZ4AAM8M2GeAAZ4ZsM8AAAzwAAAAAAAeJQCeicBQAnKJxROCiehPQnUTgCidROUTihOUTlBOFE4UTgBQAAAAAAAAAAAAAAAAAAwDPDPDPAAzwGeGbDPAZ4AzYZ4ZsDPDPAAADPAAzwAAAAzAT0TqJ1CeidQnoE9E9E6gnUCeiehOoE9E9E6iehOKCehOUJ6E9BOoJ6E4ADLPNgDMwZ4Z4M2BnhmwzwZ4DPBmGGbAzYZ4AM8AzwZmGeAM8GeAzYZjDPBnhnhmwBmwZ4AM8AzGGZgAZjDNgAAAADPAAZ4AAAeIAonAAAAAonAAAAAAAAAAAoAAAAAAAAAAAAAAAAAAAAAAAAAAAAAAAAAAAATlE9ATgononononUTqJ6E6iehOUT0T0JwUTgKJ6J6JwUTgCicAKJ6J1E6ieidQAAAAAAAAADDMAAAAMMwAAAAAAAAAAAAAAAAAAAAYeJQnoJwBROUJ6BPQT0TgononoTlE4KJwAAKE5RPQnononBROKJwUYGeDNhmYAZ4DMBgzwDMMM2AAAAGeAzwAM8AzwAAZgAAAAAAAAAAAAAAAAATnl8TzZYZzgB5nhebwvNlh4gBRPQx8IAAAAAAAHm/zxeXxeZ4fM8Pl8XlzAAwzAwzAGGeGZhmABhmwzYZhhmYZ4ZjDMAYZ4ZmGYMMwAAAAAAAAAAAAAAAAAAAAE9E6icoCegAnonUTqBPQJ6J6E9AnoCdRPROoCeiegnUJ6E4KJ6J6AJ6AAAAAAAAAAAAAAAAAAAA+evjLzA9l8gIAABhmAAAAAAAAGGYwzwzAw8SgwzcMGse9XqJxR22O/RRhnPQAT0Tjy5gJ1E9E4onKJ1E9E6ify+JRPRh4ihPROUJzzeHygAMwGvc6rQB/Z3VPmAAOsVxfSBV9EcpHNp+zAAAAAAAAdWvjSexe74AAGu06vQA3YtZPQAGuX6y4B9Vd8LsyAAHxT1Hzsv8AKuAAAAGtg65z6A3KAAAdTnpNTgOR/aI5gAGuX6z/APv+CeiehsUOzwAA4h9VebF3s1gAAABrYOudR7+3JQAAAAAADXM9Z07HHs9654bPkmif6e3AP7EADiC1WhsXezWAAAAGtg651Hv7clACegE9E4UJ6AACejXL9Z83A/2Cfg9Y9wqT0bTrmOT/AMLhJ4rfx/2bzx/Vs9HFdw29Bo7mvOf9HcmxP8VcHHyN7C5RubD+7QD4M4Pflf2Vyqc0H9+ehrYOus9/bkpPQJ6Jyieg4S+qf4QAB7U7evIyBrn+subg/wCuaJ6Oqhr3jZG9jujg218nwmP2Xcn7sN2se4GAdkPZCvSnQq6xf8sfcuwS50R6I6A3W1hHIJsHeac1tHXOfQG5IKJxRgzMM2vA6uwAAOQHbiZg1y/WfNwP9gjoz9M82dHO7wGa0v8Aggdy/vLayLgXB2Q9kL+J1ePD2B/d2XXPi9ZatDizA/YbN3m7a2DrrPf25KAYZgNdp1esgADFRuwKAa5frMmzb+n8vXPBd0xPyuP7LcSf0tRp8yPsTuge8up3wmv7G2x6tPBzxJHJx9Z8y3dN6YfRtOTHsl/EvV1/jvrXbqexejz0t/N4eU/sZfBPWG/mvt3bf/stbB10H0JuSgDDPDNhm12nV6AonononBRuyBgz1y/WXCieieifuI97zqma+V/U2wfJs9Xaff0XR3Z+69xC6qxRsXezW8OoK+Kn3Ztg/b2fTx6Hpsauyfp3/mZyLbXj2E6VXSEUbKTsQ62PrnUe+NyazMBmA12nWC/3/D/f8AD/AH/N2QBrl+s+H+/4O0JsGP1mub6zb9hzAHi4ofWTsIbLjiH1V5sXezW+MNQMd0zu+Hp3TTRO2j239Sed5LubHzJp0juMd7DWwddb/ffm5LAYeJQDXadXoAAFG7AoBrmesqfXn9f40nXbMrn4T6wHg1AHNPtKeILVWGxl7NbiZ1SpsJ+1ST6cn5tdkPtx6tk2OXZeGl59au0VsQ9bH1zn0BuTc56BP5cwHSN6VM9AAAbsgDXL9Z83A/2DruOrtQ7bHfwNZ51+n2N25gPrPs08QWq0Ni72a3G9qWDvm9vs/k6Yn8G7Pfbk1UBsDe12fkNLx/NdsPYC62DrrPf25KAAD090guP4AAORjvjga5frPm4H+wfl/Uk+jZ/6m015h3Ry6Yj9tt8vqA4J/VfPJ7IcQWq0Nid2en4vTT/g3Phs2DhK1dh3qu2Fpsf4LscbJA4D9ZOd+3tt62DrnUe/tyUAJ6E9ATiicoJ6J6BPQTqNcv1nzb7faTqa9AGejkw2tf6XjE1QHhc0WwI+3eEfXdfOvsjvadsTiW1VBzOdtf2/z7a43rUndx7S3xPr0eP5/Y24n3JrT+ve83ea7OHwBrxfiif9lt5vrjWwddZ7+3JSeiehPQAAAAADXM9ZU2//ANov42q84izvGd0Rr1eqyonD3Ftf/u/5I09045Udr/8AAOqJ9RgO4Z3xHGZqpfXiieic7qPd/a2DrnPoDcoAAAAOrz01/GE9Hi5KdkcBrl+s+bff7ROKDVUfzX7vbF8gX4jXd9bIH0dsiubA1tXXMHKntdXCFrffnYHab2Av6g4E9cr6NB20++x/da2DrrPf25KDDPB4qACdQGut6wYB5t2QB1PuJM7zf0kOorxeMuYjtN0T8FXWO4w/X31/zq9rb3zQfjerpwpeiP0nKr3aD5y6pPBj8i+weUntEc2NAfMXU/4P/lD2dyodprmUnodSLiveyu/GnoE9GBmYZ4Z4GbB1YNeyAc1u0YzwzwZsM8DPDNhmwZ4GeAM8M2GeGbDPBngzwBngzwzwDPDPAzYM2DMAAHARx6Ae0OyF7wAAAAAAAAAAAAAJ1CeieieidRPROUT0TlE9CcCicUJ6CcUTqE6iconUT0TvN4QUTgUJyicPN/niFE/lzTvNkAAAAAAAAAAAAAAAAAAAAAAAAAAAAAAAAAAAAACegAAAAAAAAAAAAAAABOoATqJyiegJ6AE6iegnoAnononUTiiconKJ1CdROKJwoTqE6icKE9E9AnoACegAAAAAACegAAAAAAAAAAAAAAAAAAAAAAAAAAAAJ6J6AAAAAAAnoAAAAAAE9E9CeiegT0ABPQAAAAAAAAAAAAABhmAAAAAAAAAAAAAAAAAAAAAE9AAAAAAAAJ6AAAAAAAAAAAAAAAAAAAAAAAAAAAAT0E9E6gAAnoAAJ6ACegJ6BPRPQnoAnoT0AnUAT0CegAJ6J6AAAAAAAAAAAT0AAAAE/lzAAAAAAAAAAAAAAAAAAACegAAAAAAAAAAAAAAAAAE6gT0J6AAJ6BPQAJ6J6E9E9CdQJ6BPRPQnoAnoBOoT0AT0AAAAAAAAAAAAAAAAAAAABPQnoJ6AAAE9AAAAAAAnoACegAAAAAT0AAAAAAAAAAAAAAAAAAAAAAAAAAAAAAAAAE9ACcUT0T0AAE9AnoAJ1AnKE9ACeiegBOoT0E9CegAAT0ABPQAAAJ6AAAAAAAAAAAAAAAAAAAAAAAAAAAAAAYZgAT0AAAAAAAAAAAAAAAT0AAAAAAAAAAAAAAAAAAAAAAAAAAAAAAAAAAAAAAAAAAAAAAAAAAAAAAAAAAAAAAAAAAAAAAAAAAAAAAAAAAAAAAAAAAAAAAAAAAAAAAAAAAAAAA//xAAUAQEAAAAAAAAAAAAAAAAAAAAA/9oACAECEAAAAAAAAAAAAAAAAAAAAAAAAAAAAAAAAAAAAAAAAAAAAAAAAAAAAAAAAAAAAAAAAAAAAAAAAAAAAAAAAAAAAAAAAAAAAAAAAAAAAAAAAAAAAAAAAAAAAAAAAAAAAAAAAAAAAAAAAAAAAAAAAAAAAAAAAAAAAAAAAAAAAAAAAAAAAAAAAAAAAAAAAAAAAAAAAAAAAAAAAAAAAAAAAAAAAAAAAAAAAAAAAAAAAAAAAAAAAAAAAAAAAAAAAAAAAAAAAAAAAAAAAAAAAAAAAAAAAAAAAAAAAAAAAAAAAAAAAAAAAAAAAAAAAAAAAAAAAAAAAAAAAAAAAAAAAAAAAAAAAAAAAAAAAAAAAAAAAAAAAAAAAAAAAAAAAAAAAAAAAf/EABQBAQAAAAAAAAAAAAAAAAAAAAD/2gAIAQMQAAAAAAAAAAAAAAAAAAAAAAAAAAAAAAAAAAAAAAAAAAAAAAAAAAAAAAAAAAAAAAAAAAAAAAAAAAAAAAAAAAAAAAAAAAAAAAAAAAAAAAAAAAAAAAAAAAAAAAAAAAAAAAAAAAAAAAAAAAAAAAAAAAAAAAAAAAAAAAAAAAAAAAAAAAAAAAAAAAAAAAAAAAAAAAAAAAAAAAAAAAAAAAAAAAAAAAAAAAAAAAAAAAAAAAAAAAAAAAAAAAAAAAAAAAAAAAAAAAAAAAAAAAAAAAAAAAAAAAAAAAAAAAAAAAAAAAAAAAAAAAAAAAAAAAAAAAAAAAAAAAAAAAAAAAAAAAAAAAAAAAAAAAAAAAAAAAAAAAAAAAAAAAAAAAAAAAAAAAAB/8QAORAAAAQFAwMDAwQBAwIHAAAAAAEGEgQFBwgJAwoQAhogEzA5FDhAGBkjYFAkQ3ARFRYXKDSAkLD/2gAIAQEAAQgA/wDqOYQYXDCDC4YXDC4YQYQYQYQYQYQYQYQYQYQYXDCDC8WFwwgwgwgwgwgwuGEGEGEGFwwuWFywgwgwuGEGEGEGFwwgwgwgwgwgwgwgwgwuGEGEGEGEGEGEGEGEGFwwgwgwgwuGEGFywgwgwgwuGEGEGFwwgwgwgwgwgwgwgwgwgwgwgwgwgwv6d/P+H/P/AHphBhBhBhBhBhBhBhBhcMIMIMIMIMIMIMIMIMIMIMIMIMIMLhhcsLhhBhBhBhBhBhBhBhBhBhBhcMLlhcMIMIMIMIMIMIMIMIMIMIMIMIMIMIMIMIMLhhBhBhBhBhBhBhBhBhBhBhBhBhBhBhBhBhBhBhBhBhBhBhBhBhBhBhBhBhBhBhBhBhBhBhBhBhBhBhBhBhBhBhBhf23+f+3MIMIMIMIMLhhcMLhhBhBhBhBhBhBhBhBhcMIMIMIMLhhcsLhhBhBhBhcMIMIMIMIMIMLlhcMLlhBhBhcMLhhBhBhBhBhBhBhBhBhBhBhBhBhBhBhBhBhBhBhcMIMIMIMIMIMIMIMIMLhhBhBhBhBhBhBhBhBhBhBhBhBhBhBhBhBhBhBhBhBhBhBhBhBhf23/AFAeXLyDyDyDyDyDy8HkHlw8uHkHly8g8g8uHly8uHkHlw8g8g8g8uHkHl5PLl5B5B5cvLh5B5B5B5B5B5B5B5cPIPIPIPIPLh5B5eDy4eQeQeQeQeQeXDyDy4eQeQeQeXLy8Xlw8g8uHlw8uXkGEGEGEGEGFywgwuGEGEGEGEGEGEGEGFwwgwgwgwgwvFheDCDCDCDCDCDCDCDCDC8WFywgwgwgwgwgwgwgwgwgwgwgwgwgwgwgwgwgwgwgwgwgwgwgwgwgwgwgwgwgwuGEGEGEGEGEGEGEGEGEGFwwgwgwgwgwgwgwgwgwgwgwgwgwgwgwgwgwgwgwv/iP/B/xU8vznl/f2F/bf5w8g8g8uHkHly8vB5B5B5B5B5B5B5cPIPIPIPL2XkHlw8g8g8g8g8vJ5cvIPIPIPIPIPIPIPIPIPIPIPIPIPIPIPIPIPIPIPIPIPIPIPIPLh5B5B5B5cPIPIPIPIPIPIPIPIPLh5B5B5B5B5cPIPIPIPIPIPIPIPIPIPIPIPIPIPL+4sLn6Pq4YXu/R9Q+j6ufo+rn6Pq4YXv8A0fV/kvo+oMLhhcfR9Q+j6uPo+ofR9XDC4YXvPL2Hl7by4eXg8veeXLy5eXk8vB5cPLxeXtvLh5eDy83l/dv4P+ZK53TW4WzSuDjKhambLFHp6jB+91idH73WJ0fvdYnR+91idH73WJ0fvdYnRSbKXjsrbP4aVJn+wMLnNrk50MaVr0PHyerlX6nV4qApFUsvY29GZyqCGq/T6g9TeGF+Ewv8AwvJhfgfR9XDCDCDCDCDCDCDCH0fUGEGEGEGEPo+oML2d24rJvHX40DkWp7KXUc4RqkTc4l0NqnqQ+jqfgZfc91T8Zl1Emp7KO8BrmO7+rkO7+rkO7+rkO7+rkO7+rkIPd+Vn0T/AJ0BvAKZx+rpdCqt+3H2LSu8RCQ0Uil2i6lJeVzlO/5LLRuBanY47t5hTSVd39XId39XIUf3YFa6n1dpWm9X8HdpfJDSb24P/wBhAfgbrb5MUb7VrF611Flq00Z3TTEvuHaV3uTVMICpfv5Cbp5pZRZxXCqMB3f9Zx3f9Zx3f9ZxiFyKKTJna5PqhTT83dH/ACpzrm0/7qraPwtyZierZeRr0zqvTKIsjvMgNfW0dX9Ft4w/RbeMP0W3jD9Ft4w/RbeMP0W3jD9Ft4w/RbeMMbmES8W8Ku6E0VH06XoaR6XR7+63+TRH8ej7MPq60LqaPXpbd/LjO70abRNK6g+9nr+I29Lw2onxpLz87dG/KkoObT/uotq/xu68+ThI+FHtsHf/AFvpHSxZyjtKcko7SnJKFrtYMoyRhNbWgLnLFLwLM5rpQ1TebN7m1hZvdBRKpckQ6wTdR0aj1DKfdzz/ABH3qeG1E+NJefnbo35UlBzaf91FtX+N3W3yYo3wx9fYPZB4VFpugavIxRpxUZxsYMNjauclmknOcBFXIyr2Jm0qMi+VOp04jZHM5rNri9xhi8t3j4+D0Fpu/aYwERq9Ccl28Lg9SI/1lF915YQuIyEhlbbVevadeAnzjqac3NZmsdNntXZ+g6iZaM3eM+5/Hjc0g0Rzt+8ttgtjFkKrR9Tu46w7C1LL3j9vbqsSLpp4XP5HbILNdPW6ajVa3ZVjaR142GScx3hcHpxH+lRG79o1MNfT/wDEdvG4oxc3BRUJBaqYVCaWMjls1lPndPkzsXsxKL0KjVW3atlCV14vQSUfvDIT1v8ApCobd80Uj47SNTW67hbFrcZGwUJ0SWdSZSSiWx0t8N0f8qc65tP+6i2r8LMNl6RGLinqU0NCI3XmSzV19fq6e64yZDuuMmQ7rjJkO64yZDuucmg7rjJkO64yZDuuMmQ7rjJkO64yZDuuMmQ7rjJkO64yZDuucmg7rjJkO64yZCk27bvTkChgtRZY9cmVtOSanGtPUJ57rf5NEf4Y+vsHsg8d20kpRH2HUCnfXztZ4zUisW+lp9fGVrODb7jalkenoO9PJFeNf8q9WOqN4IdeLamisk8+TmJjcyTjWnSVp9cdLJjATiAgomFG5V+XSvHntYvlFLmu1e6RW10vUqzXOS/ct3H3HzSfJijE0mkynMwjYyM8LMMjt4Fgyr0plTfFDnDoBkjl8InJh4XD3I0WtNpIq1yvslW5IukupmU+TVKYyKjI+MjNbX8LH8nd5mPtSQcTT7Fjmmt4yYSHTlHTzuj/AJU51zaf91VtHtPIPLweXO7RitfWyO0f0ev8LGBeGqbGr26GrmAeXnut/k0R/hj6+weyDx3Z14SXU6hoDRCU87bqnsYgsTFBNfWeQzoZdpVjko7BpxKKxWqpeKifTueee2ty6ziTqJOW5VHeQ3K3y71889q/8o5cLtfI6lyGVyjUOYLLDUjJhXSM64fzSasVSDVEhncjwW5c4TI1RqKkCp4qzVqndCqaLdXqrK5lGq1kyrrFzSN86f1BW1KlwlFImsJeWCR5K6DRGlPON0b8qSg5tP8Auotq9l5ezu0vkhpNx6o9UeqPVHqj1R6o9UeqPVHqj1R6o9Uerzp6v8nsbrf5NEePVHqj1RZdmKxiU6s9tKT87/e+xQj98bFGFnuAcSSGgdXV1b4N2DLYhOTaR0DXi8WFUFgpFCoPV4p2g1VVVeIlMSG2GiUntrt8ojT+XVzrSireaOVNXCjvGutqPercnVSpSn9UeqLJrFrj8gNXoRG06tz2mlpaNkEBrVOqDtYsaKulevoSfKfhBuNxodWlPy9UeqE+o5wl55J5rLcY148FffZNQ2owzbYY8il5GRCrK/p5cBg+yY2u0gWy8W/qj1R6os7xBX4X40qmSzpp21WX4YHMO9/VjN85rapA3VmQGYpROU/t6Tfqj1R6ox+YnbxMkM4jOtDJDZ/SI09pnP7t9qvdnRxNzWcU0UEhnySUE4lU09UeqLHruqh2O3Q0lqWnKUVISNaqY0/WKeG6uyBzPVmqCt5Tvq8eqMemIC8rJDE6scjUxs/0voSLoOd3h7WS8Chqam07pvNJXMpDNJlARnqj1RjsvRWtg13FJqjylErFNVERqUUMnG6P+VOdD1R6otP1v/VRbT7TC4YXLC53aXyQ0m/D/wB3xYQYXG63+TRH+5tgsX84WS/K4pZMIbrq6WMppaJSil0BxK5XMp9NJbBwWKTHukMdtpFP0foMIMIVgpChK7UvXiNVFy9EZxbdcRXJAR/G0NuGi9bRuzpRFsIZ5/iPvU8NqJ8aS851ojQ0dPV6jyGXLRl397Ny9RtXjG/ZapL/AO8SkFNYCi1GqfW/UvRSNSTC43QWMxLK2lx3EpLnaz3NRlZcf0+RMfN5xKpDKo+PjLxbh5/dfdJXiosy4xZWMzLIZeXTSn4pjTBBUap+kksl+N0XjKS2kkoS41Ic7Zu5mLr7jYT6fj2EN0f8qc65tP8AuqtoDCDC8GEGEGEGF7O7S+SGk3HreHre56w/3fY3W/yaI/y9bxxD7d6q90M1S6+rUjUelaeJhLySRjdWVTilfkhSqdLim9QlVSWoCJVUh7i3MqO4szJjuLMyY7i7MmK0VpqRcNVRdrZX8bYdf6yUyuIOA6Bnr+I29Lw2onxpLznIjUrXo7YfeKqIfnaG0PluvN7x6ka/NfKSyCvtC6womZziVxkhmkygIrjaL1SjJJdxc2jxltqXGUhxq3tTrQ52h1EZdC08u3qPqc3mURllylqVxKDiedoNU7UgaxXmIzrG6P8AlTnXHrC0/wC6W2j2Xl7O7S+SGk34f+77G68+ThI+CfsAvwVqfk81lf7cWQ4RELrQERraOrxL/o/rIP6rFHihxbUppdRuqdPedx5E6sTmEuj6D9rbxa2vpZiLOGDPP8R96nhtRPjSXnOcuO1pficva1NLnaRwMHo2BV4ienwvEgIOV3cXUQehxtYonW0sojOncRR+pAYeLydTR52pELowmMtWdZeFYICDldXKqQ2hxtLorV0sjNYOgPIbo/5U51zaf91VtAeXsPL2d25awqYyaW4VpgPwtPS/k9jdb/Joj/DH19g9kHG5fxn/AKa7iNKsiV52w2TQqQ1R1Lf1fzuckPrJbLFUmO6uMfdtSIvCvDobTGfdn1R0dn1R0dn1R0dn1R0dn1R0dn1R0dn1R0WGbb2nNid2dI6ry8Z5/iPvU8NqJ8aS85y8o3VXWMC+WX6PO0LqLBzG3a7tJeE0m8FJZZHxsTVRZf8AmNVCpCh6uNqAkNWdZE6nTYZ0EdrrvE1evB6XO0jqRBTayK4RLeC6Vklp+h1fP5hPJprT6cTiP1+No6jNePvLuXUHG6N+VJQc2n/dRbV+FWSjlOrhaXrRHrC8rajV/TKtncyof20WXcdtFl3HbRZdx20WXcdtFl3HbRZdx20WXcdtFl3HbRZdx20WXcdtFl3HbRZdx20WXcdtFl3HbRZdx20WXcdtFl3GNfbHXHwNe0Wq67ee63+TRH+GPr7B7IOLwLWqcXo241WpqqbnLc6kWl18qdTpW8SeaTKQTSWx8BhXyOyvI9aLI5tMuN3fQTUh1naLVGH4pfUZVUgqZTxWyO0C6Cnt5lttJqkprnMjmWkWLKJoNAwVsW5zxxVz6JdBqemFX6W1sS8HO0lxnn+I+9Tw2ncbCReN6o+j0cVARsmqUglqnZnVinKko3VCpCSnPG3IvSk9peQeQyqfc56rzJPZzjvqxp6PO0UoJFyelV2lSYqvNMJXXKh9YUVGqtLz5DqhSSSacbZW9GTWzX1xiMnnO4rvQlNq2PCoKehudpNQCLR9q9xNRIobo35UlBzaf91FtX+N3W3yYo3wxx6zsdtg3O51xp9dcaLwldEpzidyDqPG/d2iVkSNWqZXiVTc9kozEWW619tgtbUXARELrQsRraOrxiFzHVUxgreYwGva1lisBu7T8FrpCeVRpwlZX9fNb6tw/YVaUlZ1CpW7C6ms16Vd1rUVeCl9ZKtURVGjO0btv78MjF6k3rP01HGdyD1I7Epe10aXOH3MIvMWS8Wmjrp7dT4xp7LtDVjreNxdYfc/cLSKmiTG56spjKBXw6dSpdxp/wAWo/pxN7l1FSxBpan1xSPv7sbqDItOYye7fPJjgtRkE51uvI/kYrZkqr3FrNWcJtOT5XKCQyqV43bTYKx6yigtNOkbkyymMtgyAT9YQHEHFxkBE6OtD4r9zPTOaoZMoa4tK372QriRaUxlN4mffHPacn5pqw1/9+lcsiVwE+Xi04QaDVVUFyj03IbG7X5DZjaTQamUAN0b8qSg5tP+6i2r/G7rz5OEj4Y5PjusG5msplc/lUyhIzNFjjmWOi8NSSSW87XjJvqTyTxNuCw43I2KGaW8VinFckT7FA6D1UubrCg0GisdtkCCx72n00pzJBflRWMuKsrupQ0Jqaetpdet0dXhhG+V2yLjJRYqg8iFpdRaeTaulDKnW3VdXiGWXsbZjFHMVuuZbcSu+MqGPNIZHrTVsiYuq1LKgUPqMtUgqfY2yeKWddE4gbkF9xuj/lTnXNp/3VW0fl7hfMJViwzSpvTmmGvl3yfRGvrdZ/u55QB+7nlAH7ueUAfu55QB+7nlAH7ueTgfu55QB+7tk/GNTcLXm0Ir2g4CqXnut/k0R/hjk+O6wbwzBY8JHkas+VyY0J/IZwl55OJbMuKYVKWtHqhopWJrGZfah8h9pNO6gSoVBp+i6rohVJxR5edvtWCzmcKteUr8rWrSbgrz6py5IU4xEYcaUYxULrTGL53B+KdX2e3Hq+p6X8MInyv2Qc5e8N1J8mqB05tA3P2o3B2b1UnCMqN5YedvJUa5WcJqotbUymE4jE/IpTKecx2FCmuSxLaimT9xFtNcrUKoT5GVD8dPS1tbU0ejow47dJd1nnKSqVX2TSaVJ+WS2BgON0b8qSg5tP8Auotq8nlw8g8vwt2RC62lkgpXrdXqj1R6o9UeqPVHqj1R6og9LXiojR0dLzzUYL7pskV3chXyM7STIKO0kyCjtJMgotNpYoqFWq20oWb+GXTbmr+866yZ1JpN2kmQUdpJkFHaQ5DhhfxCZF8YNf55Gzfm+Tb72B3qRc2ncLcHtVL+6dRsbqoNaYW8qyDiNbQjYDFBkzmcR6OlSLbsZaKrRMH6tpO0qQ8ljIGZVqt7tjoFacg4RL058Fsi0fURJT6RKC73aoWsVVnEfOaT1D2q+SdJxWr/ANm69tLl009QSLbGZY51qfz40Nt1edateHQGpyx5uMtXt7u5QcalKk3bbSlLTaOmUyopVjbu5aaVa8YyPxQZM5ZEejqofCtlWqBEaOjAW7bUq+mo8ZA61QLDMDFhljcVKJ7oeVzlnltd56C1U1Uy7DaSQsTFzCZUVqxt58tNK4iMEZilyZQER6PWiMJmVyoGvo6MDbntQb26hRcLrVFsUwZ2GWFxUnnEn8MyGBW7PInehHVFSHaSZBR2kmQUUW2r1+FMazUoUsZ7LCDCDC8GFwwuGEGEGFywgwhuc8c62uaoWhKrI32cFeOpa30XoU8mUQwuGFwwgwuWFwwgwgwuGFywuWEGFwwgwgwuGEGEGEGEGEGFwwuWFwwuWFwwgwuGEGFwwgwgwgwgwgwuGEGFwwuGEGEGEGEGFwwuGEGEGFywgwuWEGF+HeNtysd92SqnCjgu0Nt8HaG2+DtDbfB2htvg7Q23wdobb4O0Nt8FLdplZQkVDBRaqoRQWjVtVN5GkUJ/wt9Z1flfWdQeXm8vH6zq/wD0x//EAGkQAAECAgQFCg8ICwwHCQAAAAMEBQIGAAEHEwgQEiMzFCBDU1djc4OV1BEVIiQwQEJRYpOWo7S10zREVVZygsPVFiEyUFJUorKzwsQJJTE1RWRxdJCUoKUXQWCFkZLwYXB1gIGkptLj/9oACAEBAAk/AP8AD69H/BbdDs/Qp0MfQx9DtHoffLoa3oU6GLoU6H/nCt7laSxKOjqXpw6JURFH/YEZiXhOLphvyX/zqvZ0w3pQ8Yq9nTDelDxir2dMN6UPGKvZ0w3pQ8Yq9nTDelDxir2dMN6UPGKvZ0wzJBcXQ5LtK2kdAolSku1AGtur3i+1oPvtBrYMUHYIOwjSLLRJxVGb5HRFzggETj65dCj2USTLhze2RQ0nt1meYXQuWvdl59Uqif8A5b3sfYZ5VvcnzQpE3SG7Lz3qljdPeyDLN72Nowj2MmT3H+xfQ7D0Nb0OxF6wbLJki5KLazL3lcEpfMVdiWEAva14lqBTBsZU5b4Raf6xdoYPbJNKZXJre9VOSxxUpjXq9UcN1dgHvFMDOUeW1fs6YGco8tKvZ0wM5R5aVezpgZyjy0q9nTAzlHlpV7OmBnKPLSr2dMCiWYx7XA/Kh/s9MCR9bR7KpaphSufmzp0f59LZXaQFx9AkmluKhF/6qUd+mHxkdJwa5gaVostK6tqoS5IoFvRQdEZPvng6MEzpBS43OPTJY5qkxev8vNXQR+BTAzlHlpV7OmBnKPLSr2dMD+VUgZgmRvbCqRvaohU4l6oYb3R+H2luLMfrl17HtUXaG5Ix+nLexW2PMsKb3LVIQnvECz+tojZtTxkFELdIdph6hgbD1Fu2GYTbUkvvcyneCaTuI+0JPSzArk9AlVDaTH1MI9+qGj0nGUwJpY5eVc3pgTSxy8q5vTAmljl5VzelmKGVFCKcnBl6WplRVwSjQpgGvb0ww7f298RGD9fHugy/6fB2lLJpimeVGUzPMMqp/d61ovY1acyMeykAQhM3pCZfUUwRbURmGXIKKOV3TN+bpgmWm+S7p7OmCZab5Luns6YJlpvku6ezpgmWm+S7p7OmCZab5Luns6YJlpvku6ezpgmWm+S7p7OmCZab5Luns6WGzPJVnqN0EebZke25U0ZbenLnUreNaMJFBDaPN6Pu6fb7/aG5Ix+nruxmjHGPqxFg2Okx6rtKkxtvm12PHnplYw5m9LtilH1MBtsyqo+z/ASD1yl1m629erEPb3xDYPpMe6DL/p8H3t3JmT09drLVrIANU3y6gemtMsd3kSoaV2SjWDEW5bjZzIJ+HS1+xXld5+qqWv2K8rvP1VQlm0zxj97Nr8UZScpp0YqYPcxylAc2QmclIL1rUG2oS0F8mJxcesMTVkpvwVRU0BLrVjfoVKXgzJyRD+dRwgVtT62JHFrVQbOkXivhE8XH2b4Bb/WqXWbrb16sQ9vfENg+kx7oMv8Ap8H3t3JGP05brNx+UPUwNZJzfMLE7pblzaVwRqUpw17cI1KlMdnM8JjOEnXsd4RAVOaDVLYUmyXWXDdR7XFV3esNeK2NsXsBcvYwsK86NN5iAesfkTW3IhXi1xVqBJUqce2FIboXdLY10/uINKjlJF0yH/fTxhTE4slMCKYHIOxFcpiSthfFATrPz6fufscANsDOV4X1dSzCf5HMTSrSJUrugHxiImqfMUt3l2b4Bhy1KdGq6C9P/WkRuuBcZBrLdjMc1tYkp17ZAwvC7IGvFAYWdQpjC0ZPw6YQh3iaZka0gGdsjl59Q35QLwG0i1MEY82OvWW3Hlx/U2iuroJBCyPLn1gdAlCMt4iTGHpAV0wpz+Scx8zpbmd/mXpUVw1FGyPKHrRPkXhbxanCPZKtbhIy7Lq4Ysutlv61ryT+hEivlP5FLFLQpujH76MBKzoScFfEMTzdP3P2OMP4Zp1ui+rqYFEztQdlK2vyV3L4sydFS25VIjkp0aKbUVbYLjVoL5EPjCUfULo3LRVHROKQ4lSVQLbAkB0cvsGExLjK4jFl1sAiFcnr+4or5T+RSwi0Oa4hfwKVMCFoTR8FnTF83T9z9jjDv06531dTAtmpqDspG17Su5fFmGjpbySSHNRom6bUvSj/AN7nkXn6PCVchWiqMnWJj3oji6GkEQOk1vxEYP18e6DL/p8HaUlwzPPs2Zf2NsEajUyZOlT6VevJpLrL7jZKSHZIAd7mhdJHTN/5jSS7JORF/PaSXZJyIv57SS7JORF/PaSXZJyIv57SSrJ+RF/PKSXZJyIv57SS7JORF/PaSXZJyIv57SS7JORF/PaSXZJyIv57SS7JORF/PaSXZJyIv57SS7JORF/PaSVZPyIv55SS7JORF/PaSXZJyIv57SwKzmY2e966TNsC9jX3W9KTKFgvyKTAdK5ttyOZZRX5A3VnKbbYNkGXYiDzdfyuwbkjH6eu1m4/KHqYGtDBUva7W0qRKTeV7MuMUfmKtYbqU1oz/ALxQDfr4wAnO1NSmy0Mmpz5A0F/olbsXYh73pCeDDS1peubxFy0ErJusmFv4JEHN8YXLJ4etnB1YHtvLfoHdtVFQqk5dtEQGcHR1DWFQQSRrtWgHdXZdjG9jBm7vfxcZRUFSmOK9TqQkvBkEb7d4ImL4Flr1MDX7nMw/pQY58Qy3LjKniMudFJOhBBXtQ+7IUuxQDqyyUVuNmsjZ4PTuCO6mh0Ftt57yHvY854dHI6tYoLlqlJo70pC7aYmttgXNqMhctfKynrlhcP62iNm+MHkE8OiIMk2qATZayUjHvUzpUDSKmkuycHpB+FDVla2f0cty0zir1UtN9u8LsYQjqzhCl2IY6L3KzCQL4odUpo7qZ3MW2qlIPc3Bp/+euiwhzKC5ZSxx3pSF1trSsDPe5a+TV96uYXDhk2x8IPIJ4dIYZOtNQpL11kpUpy6lIodIqai++Bb3pB6z4iMH6+PdBl/0+DtI8eQOxtqIIX++XHtN4jA1dOQt02psvNLJfXlgCpEXi84HfIYewbkjH6eu1m4/KHqYGteBqlbAqLMs1hgjvKkSk4rlCIu+XZCE4Ourv6xPkHmV2f3fI7wTOhEgvNgqjxKUiu1qdEJekKUmdEyIKq7ojqsH5sI9kJ4NVdJlXPLw6KiqnRyWHKpVLFajSlMQ+kL2CaCqWxxzdljyoJnUar4GMTaje9drJm8XwPLXqYGv3Opg/SgxTElamFiQlWvDkojuxJkgBXpTFotVtdmUtqiwSTK+Xd3mw9NFY9kUm82PqO/XXr35W1PDWqEqa3JGcqZUjVp88IoSB0ZaLUie1qSko/siAOqoQ3hBoxvIB+bMMejJ4NdWN/CzS9LjYZe8OZcqoSdKDv/AP0odW1yGxqjBkSU8vNI0v40r2xSbZScX2CalzG/Ma8Kprd0cd0qRq0+iKElCJENqEnjEGcG4WagWD2N0Sj2ouywbGTH8Q2D6THugy/6fB2luLMfrl1xV1UrqpXVSuqldVK6qV1UrqpXVSuqldVK6qV1UrqpXV2PckY/T11K6qV1UrqphjSq3PDFZpLLe5oD6qvUytA1hCYZc3sRIKYbkm/8FXs6Ybso/wDBV7OmF63uVY6s2mbWx1XFJ4lPd0skWgXqBFgrnmY4BD1HviRuCQ17HvhI/mV0mRc8vzwvMtdHZYe9VLFajSlKSldWJnjXPcwOiRrZkUGlUK15bkYvGEoYZEcnSu3tIjZPujUKWAJC8cSrLo46lY5UZ1bo5l+1WS5TjvbsXfITRjosjjcpjdDHEhy70Te36FMgFvYR5I6V1UrqpJ+rlYhX7o7qY7tsZ0n404KdjH5wncQRUtpmydHu664StRBMjPBvWjMpJ8vLg+RRZP0qLKh5pciehqs7vo1wy3n5FHoc8WarFNylnFGCtMRGU+jE7J89qfeiZcYyfLpXVSuqjkdC5N6oSpAuDHdFTq05b4RQk228pc1PDg2VJZoSj2B6QZhVm9jqKSC9FvcUNLDUr5Kzo2MgEDjG+syHLKgbIAEzSxQEmkHSwJI1SrLiURnhygmJmU3AjlgDowqDEJnI6qV1UrqpXVSypC8y8jeStZVxntAhLqsAoDFFdrSBJoz1UwembyoZuc0smbmeW6pMdm/VwXprXE1WcgLoWQiIYmx14n2sBXwQX60AoY/5PvesUBeFJBWcvyR9+ldVK6qV1UkoCGW0aq5dJ2eCFSsycu1CJd3ikm9jgj8PJphxqiOUYc4JulodSWA3HLM5+RS1hotTTpA5ZWONJ0keYxd5KMxDiJ4yCjArbnJvVFSr21SAqZUnVp9KIojaMlK6qV1UOTVMvugo16LLuhODUozKlAbhh5X5Mfc0dhrWGaGhI6M66rZUq8V6L8/E9kqTgGmf7RrmPSF/kxAX0gsHhDpXVirqpKyRmlACq5Xzy9xlTNYy7KIObvVJODg+Xk0w6FpHKMOc1BLAhpYDccszn5FLRmu1dAkHllaApStD9db0mMQ4lHjMv8CCjadIsRlKBUmNBdFTlT6URhbGWldVK6qFORM3r9SzI2QR/wAaMij3Sl8XnBb5DDHR1E4s702JXBqXC0ahIuHfCKL+kceL4iMH69K6qV1U3QZf9Pg7Dd9h3FmP1y69t7kjH6eu7JLsadgYK1SWzVOaD3e66FS6cGk+2IW+ZXexOWQrtMfzKngcEekZGDINdccoIHG2kVLFhRASpoIL0pCqNEIVG1L9lKxOJynt0g0q57MLOwZe1A0YfAqxsIXaXZjbFTe8oY6684lUiyfGd6Oh79TJc2urQVTke6NQKow3vHZF5jXZkdSCa2ZNtf8AJq79nxfALf61S6zdbevViHGSCAcFedrjosjOmmGaFfSbL2NqB1mhF/dxw4zRpEboq1VMblBB/F7I355SXhbvNi3yKGkqpGWXZeQiSNTamgyRjEH/AF+GTuyR/wAMceOWwpZklwqVNaMMMH2nNqOS5EuLvqQmTBl7XXrHO/cbL5oKiS5ekqZXfrxN5y+HRcMCVGlKZUcnQqEMQPtkJQxL6cJocHEQ4/e6S962S8SnyR/NxlOFhqvXScXIOkRsqH3Td94hryFOLvEJVSWETJL7AhEjZWlJBdiTJU+xVY5dElcAOCVvtPTJx5tYFRmUzpwmXkpy7ZlQ97WOl+62XvquXcmPSag92IeLuz3HF4viIwfr490GX/T4O0txZj9cuvbe5Ix+nruxy44ydZoIg1aaWzQkSv0yBq0eb0iZMXbNIQf3FGRI1tDQiCla2xKG5SpEoB3QxCHDo4KqqsSvraT7OWpNdbWscCnWlL4sg8blAhfpbeUjozLYwCUiTuCAt8It2YZhkzg9kgphkV+Ssr/V1MMcnkpK/wBXUwxyeSkr/V1MMgvkpK/1fSZOnEzzIv1a8uWpUqbVCvbbtEMIx8XBjLkQTRJswNZd8EnS9M/2TF8BIPXKXWbrb16sQ41dwsZbNphO3l/nmoCVJvOZOsQwVqU4mmW2tTtYj5a1d+jDrAQEQTZK7g0K8val6WMH69A5ClGqKBULayp9LjNkJpgs+C53W2GYV4wi82vrosuFI7PnVElLtZncXS4ZfGH1iXLVOLy3y2gUbWFALpipFxt+PWJhGhmyTnRuS94atQmj1MTiiZJPm6xZmXSW2V6EPfWhVGjL6XVi+IjB+vj3Qpf9PH2luLMfrl17b3JmT09drMC21hxbXRKJUgck0qPKlKsSKBXwiiIBPnBGHslMBW2LyNeeb0CSAwy5BRx6UZcd5qa9Fqq50tzvNJWrtCXP7WkcGeepkjEuXA4JN7nTFATKHm4MscdWRl6w2bGllWAXk4l7HshZlg/+OLsXwC3+tUus3W3r1Yhx11Zf2LhHxSheEWsu75Ta+vgLwSdmbvaV63Qp7RplALgk7ofGfqFFnL/AXxoDU+7IKWYPHzGhDrA9WotWeoy/3BEH6PW6FPMbgAXAp1UeM3UEsbdb0X++W7F8RGD9fHugy/6fB2k2xnakyE0pzGpgg9xlvY1iEpd6NlmH23uSMfp67Wbj8oepgYmC7km0xebp8II801zVpicUs6pRwlRNY+ZEuTmv1TISk0ebb3/ZUHBLNi3+HfNYHIgmSU5acBb5cJelv7JjtCPKrbOC8yLp2AAlRU6rUsZkwroxA6Yg4R/OphszL5Opec0w2Zl8nUvOaYbMy+TqXnNMNmZfJ1LzmmGzMvk6l5zTDZmXydS85phszL5Opec0won2Y10pmXxiZzsoUoT6vbzt2lqJv+Xi+AW/1ql1m629erEOMV5GOzp2XXX/AISLVv0GsNnmed294yN6d0Go/wBg1iwYUyURTqSR/wAEAQaSn3cwPzg48oKozfSYw5ljsrdY7zflK9KAXm8qgKiVp5XE48U0LwORf0GsN14wWmFWXe1pHhsBdecSE1hqoELG2K3FeXawoBXxPzKaZYqKcvCqC4wZlss01Dl764OgDD9ErxfENg+kx7oMv+nwdpSakfZbmBAVI7NaoeUIwYvzCd2OPo5Y46WlNEyy2cuWklt/VdLHlJveqMjUyjhM3SwVk8pWbnFLBWTylZucUsFZPKVm5xSwVk8pWbnFLBWTylZucUsFZPKVm5xSwVk8pWbnFLBWTylZucUsFZPKVm5xSwVk8pWbnFLBWTylZucUsFZPKVm5xSwVk8pWbnFLBWTylZucUsFZPKVm5xSwVk8pWbnFLBWTylZucUqY2SVpadBrvsRSLRuS98MmLfCEYoM2NNtvV3ncdg3JGP09drNx+UPUwMSOojTNDYQGqYIM4jV6RMtDvoSZJPm0bdSP0puhUSralAtiVC3sw8kgd7ixuR0qxGqEdKpDHdFTmT6IoiUXgrn+VIQtU/oR92rus0vyNqWDgvOEyoMaPLCsbHGVnRTtZk5umSEXHX5sazUr3K7y3u7Mp2tWgLAYXnB0VwRtk0NYlBU2XeESK9EpQm3wJcofzdZZ6knSZJmXkVrpfKvrQRp2FOKsNarLuzZBDKMkYuo7klHeYbMHmOrIKN7TapbL3elqK+ze+FggpacwzU0n0bk0uCZxR+MBXj+AW/1ql1iuAhU1rztfD2v960OMGUhf2dW3LQ7yvFck/PoG4dZXfnBodBbWrQKowl84PG7wJpYtQQfY2vURx5pO4HLAZsKXjMxxmse6gzRaGhPLErpcvO9FyHdLVXEJ8qPL2zJ7+sS9Q/vrfL7OWOHYWgUaxTdcYqHSuCpFOErOzKqJH3AndKRH+vRFGkcmderRL00elTq05bkovGDxvA0Mv2uIAtF7HHdiFMAC3zZe8NlkT8ISrWOwxzZaoIsuMaaGPPVN6n+MlXB3Gb4QkOsR5Ec6TakbEBI9kQMCXSi4xWQeL4hsH0mPdBl/0+D727kjH6ct1m4tJPqEGNlvZrkBFWGcQCHnXCWfxnhEUfV8HXX3tYQyiVXDoNk9tEPvxlOXOGELbQ6QPycjuq6P6VxZnlCJa1OaaO8CrSqB3oii8CuCvE238zo0tT3Ju29OmnPCGLhh5SfjKBJAYZcgo480UZcbOeabMn9WE8xSnl3RU6vRaub77RqMjY9GXJphLy3CvUQdXLjqqEzvAC7XqJbckJwg8sfhUtBY25HdZVS5SuSpheMMSk+o7V52uSQIGSXlY1TWMv8APHIXW4x8Hlk8Cky1uT8+F0cGbTI0ifRJUg9jGH/rq8Vpz/KrwPROTO4qmxV4wJKT6lmiz+UGxKlSPStuEJ0K9qCZtKJUC5yxhEOIhb2CMnVQ4tJ9jqSPxDoA2skok0yJNdYSzEwwHqTKk6tPo16QmjvLsmeHsnU96jdaWzG2VMoYksd34hQakqWiqHycHTUSBapa0qZAM11GbOk1TebH+BiaY4JZtXS6qKSCDNpn9AOAK0XHDyD/ADou9jNdx0c16Ra2JRpmu1GARVoViYGiG7DDnL3fx5d5smTTDFszXIyiy7wcytma4Ud5m+Mpb00z2+jHXqWWJSOJ7VKCbURQDopk/GkoaBCgRiKllKV0xL1Azt97ohbaU2zE2T5GTVViZzrnJ0VCSoEQYL0qhWoLciELjKVwVrmNoyn5QPZ3td14uL/eCRXW95OJmu5VtcGZ+QKYB5ob3/KSXhLzJUcZjWRgMnLliLBHdFGWj4pZ35AIKVBaPAIqlA5j2PpqMOdEp3zIuyd3k0wwrMFqOMWXqoU0tdeTwuczdLb260aZBj6xluVVQna/Jvq0HRTAg+fl+BXRZADNalYWBMTrBnar3NpQ/Sk2QmNnO5PcwOiRuZkIdKoVry3IheMJQ4yQSqwBAvUwe/HA+eXKuOUEiJ87F8Q2D6THugy/6fB97dyZk9PXazcVkj1CDGhCpRKhFCpTlgvRlEfSDLBRuNXIE13zvZ+uj/EDlzqC821GTN8Hkx91rH3rxuGrcbMFhY9Ik0ypm4nqlAd7y+9jlshJBnhflzamTDzTG/qNIXe0ywmc4TKg7DKp3mZJkXiStaKDzpTbWII84YmxjhpGJWdug1TMTxBBdVub0p90qvoxb3DDBiT36+ZJCe0TUP8An+pY9TecyaByIx7FHrfjn+yx4lAki01VS2WHqMd70rewe5lXB/wjLvcUVJVOzzJLa8qV0RG2Mu2i2wZh5wRNkHF2GXCDl9iKWCzRtUj93uuhI6cEk6oYd86vGpCjmFN++kkvRh/xc9phZq93o32xm3uKkrqmSY2BcVE8NSiDOAKD/rSdhlqMCYAjAsrbVMGnIfMlerva8jKGk+VFHj+IjB+vj3QZf9Pg7bUhbJ6mppM6uUyGENURnacuMAtSCPmr8xBk6smjghph4WmjjJ1fUPaoQqYedqPLyqmHnajy8qph52o8vKqYedqPLyqmHnajy8qph4Wo8vKqYedqPLyqmHlaly+rpbO5T9Z08Ogkr8N365XtYlBbnV6RTpczpLsmbIPvdg3JGP09drNxWSPUINYnTjnRjqK7WfuMWbyHYA/cpibUrgzZfmx9zRtOhcm9UVKvQmguip1actyURR7bjfTtcwS46JXBncRaUCoBb4ZaXCRxIPUU2ssMdddbW9p/dKbg9kFvcUOKV0T2wviIqN0aVkF6mWJVGlEUdGZynCykhjKVSEQ9UvMsC2tUPSKUwtv8Zr7OF0xPB/dVyO7St4vxlWp0ace+EodLM1p72myJim6seaCL8Rbb3Rpt80hO772slY6iyu0F0Ku1SEeaYHteW+UoC7WIxMogflZGt+On7LHjVJpZtTYwRjl2aciu6Vi/EHa60qXvE0g6Wbrpce0+ivoOtVgvxpIp0Ske+D18sr5Xs4AQKttlE16leJk2q9g+7TIt80hO479GJK2NbYmElb21OEadKnShHdDEEYtGPvd7WKkcsWvM6LIbH8kFepXhKDRoHW680o0gvChpZu5SzMLfpUSyDNKBbakJo1I98Hm9cC8jJoh0lNYwyVBdKmWQFHWzo+bUVxHpEybe9ITwYKN4EaRImEFMjDBciCMFXQGMY6vtQD+1j+IbB9Jj3QZf9Pg7bB1BLG2q6Jtn78uNK6qV1UrqpXVSuqldVK6qV1UrqoG8jIXIEKDZOwWoSAzNCOSG9ojSvaleFXWqQqjnIXoI0Z4LvP1d3S3ix3lF5+r6W8WO8ovP1fS3ix3lF5+r6LEil3kyQmBgcVKQhCJiKmdAFGUwazXZLrLHrZ0kuV/skSZc5Nb3GuSgK7A9/JNRAPph6XfKsulvFjvKLz9X0t4sd5Refq+lu1jvKDz9XUtgs0e7OppQ3E1sKBwdSKb8FXRTLkgjowjvQR5v7vRxV6yVD2bTksqyzTBLYxpUyg22q0OiJ8seQSP8Ok7SfaM3C9yjgU9I3QnCplvWw/H0wG54PGP4NSidxeMayGpgEWsDj36Wl6UXjDjpg6glVGT+Un54QIRD4sJDKfyKYRR3y56ssrSxAVCkJwy1ZnSD4McHy6WRM8pMQ+rrToQ505KtlVE0iku+EjjJrZYQPrI6JiJXNnXgEpSLBH2IojZslLV3azFYpLl1y+qD08Yr3eb4gVKfxkfyKTHZtNSbYiJndUhLxw1qcP6SlhrHH/TMrNzilnkpNW+KZhSl/QX1LVLOIG6UHjVqhobVa9cuUZogbrPJgj2T8PWWRNE2shMq6TrA5xOXbUqgWdTF3wUcBKYQ5Ge8zgpXmmAqpMPeguKLODFwgCfLpg3wTMjH7+YXdAuETi7wKn8imARawSPeZaXqheMAOmBDPAIyfCQBNAv80IGloUnWctvvkMJun7qPikfW3n6SSefJ2RZwc2THUNUZMXbG9NoE/CdWTw9fY+zTQ2dCrUtSmC7UojbYkUhzqcnBx0wjIUsBK8ocsTYAhRC4JxRD/SA+fTBiJMaYfv5kdEC4ROLvNU/kUwCLVyR+BK68ovMjpgQziCMmyuUAmcX+aEDS1KUrPW4mlSpoyzA8j4sFym8/SQCzbO6avLFOMw3S5WAn8zHkXSbhBwXnh6202z5qZiy21N1Sd5VOYV96gy8v3GjMO7zn4dLeLHeUXn6vpbxY7yi8/V9La7JFSSXpnanJSAC54viiQKoDEuei36XN9tyyZ0mGzUawUxtqUeWqWSyoz5Si2zUZILzI2uuLsUtn/wBH0gPKR3nJ2jg61JqAt8mbN8IrIPR7XlR/7SMjzZvMK818vVSwQKZAsLtpkRhmF4vIphjTjyQg9pTDGnHkhB7SmGNOPJCD2lMMaceSEHtKYY048kIPaUwxpx5IQe0phjTjyQg9pS3Kf5uSgLl9KINStCU+9mIEZS+KjgpZm1yrLzbD1s0oE90KquvZCd2QnfISvLj/AO5fodtdDsvQ/tXIP7C2D/Afx/2f/wD/xAAUEQEAAAAAAAAAAAAAAAAAAACw/9oACAECAQE/AAz/AP/EABQRAQAAAAAAAAAAAAAAAAAAALD/2gAIAQMBAT8ADP8A/9k=;" vertex="1" parent="1">
          <mxGeometry x="490" y="945" width="120" height="90" as="geometry" />
        </mxCell>
        <mxCell id="67s5NUpGnZRPGUlSP67H-7" style="edgeStyle=orthogonalEdgeStyle;rounded=0;orthogonalLoop=1;jettySize=auto;html=1;entryX=1;entryY=0.75;entryDx=0;entryDy=0;" edge="1" parent="1" source="67s5NUpGnZRPGUlSP67H-6" target="67s5NUpGnZRPGUlSP67H-2">
          <mxGeometry relative="1" as="geometry">
            <Array as="points">
              <mxPoint x="1050" y="1013" />
            </Array>
          </mxGeometry>
        </mxCell>
        <mxCell id="67s5NUpGnZRPGUlSP67H-11" value="Get 8fig users" style="edgeLabel;html=1;align=center;verticalAlign=middle;resizable=0;points=[];" vertex="1" connectable="0" parent="67s5NUpGnZRPGUlSP67H-7">
          <mxGeometry x="-0.0966" y="-1" relative="1" as="geometry">
            <mxPoint x="37" y="-12" as="offset" />
          </mxGeometry>
        </mxCell>
        <mxCell id="67s5NUpGnZRPGUlSP67H-6" value="Users" style="shape=cylinder3;whiteSpace=wrap;html=1;boundedLbl=1;backgroundOutline=1;size=15;" vertex="1" parent="1">
          <mxGeometry x="990" y="747" width="120" height="80" as="geometry" />
        </mxCell>
        <mxCell id="67s5NUpGnZRPGUlSP67H-8" value="financing_application" style="shape=cylinder3;whiteSpace=wrap;html=1;boundedLbl=1;backgroundOutline=1;size=15;" vertex="1" parent="1">
          <mxGeometry x="1145" y="747" width="120" height="80" as="geometry" />
        </mxCell>
        <mxCell id="67s5NUpGnZRPGUlSP67H-9" style="edgeStyle=orthogonalEdgeStyle;rounded=0;orthogonalLoop=1;jettySize=auto;html=1;entryX=0.995;entryY=0.876;entryDx=0;entryDy=0;entryPerimeter=0;" edge="1" parent="1" source="67s5NUpGnZRPGUlSP67H-8" target="67s5NUpGnZRPGUlSP67H-2">
          <mxGeometry relative="1" as="geometry">
            <Array as="points">
              <mxPoint x="1205" y="1024" />
            </Array>
          </mxGeometry>
        </mxCell>
        <mxCell id="67s5NUpGnZRPGUlSP67H-10" value="Get recently activate plans" style="edgeLabel;html=1;align=center;verticalAlign=middle;resizable=0;points=[];" vertex="1" connectable="0" parent="67s5NUpGnZRPGUlSP67H-9">
          <mxGeometry x="-0.3215" y="1" relative="1" as="geometry">
            <mxPoint y="-15" as="offset" />
          </mxGeometry>
        </mxCell>
        <mxCell id="67s5NUpGnZRPGUlSP67H-20" value="" style="edgeStyle=orthogonalEdgeStyle;rounded=0;orthogonalLoop=1;jettySize=auto;html=1;" edge="1" parent="1" source="67s5NUpGnZRPGUlSP67H-2" target="67s5NUpGnZRPGUlSP67H-19">
          <mxGeometry relative="1" as="geometry">
            <mxPoint x="565" y="945" as="sourcePoint" />
            <mxPoint x="565" y="535" as="targetPoint" />
            <Array as="points">
              <mxPoint x="540" y="830" />
              <mxPoint x="375" y="830" />
            </Array>
          </mxGeometry>
        </mxCell>
        <mxCell id="67s5NUpGnZRPGUlSP67H-21" value="Update lead - user linkage request" style="edgeLabel;html=1;align=center;verticalAlign=middle;resizable=0;points=[];" vertex="1" connectable="0" parent="67s5NUpGnZRPGUlSP67H-20">
          <mxGeometry x="-0.714" y="2" relative="1" as="geometry">
            <mxPoint as="offset" />
          </mxGeometry>
        </mxCell>
        <mxCell id="67s5NUpGnZRPGUlSP67H-19" value="PS service + API" style="rounded=1;whiteSpace=wrap;html=1;hachureGap=4;fontFamily=Helvetica;" vertex="1" parent="1">
          <mxGeometry x="240" y="560" width="190" height="90" as="geometry" />
        </mxCell>
      </root>
    </mxGraphModel>
  </diagram>
</mxfile>
